<svg width="28" height="28" viewBox="0 0 28 28" fill="none" xmlns="http://www.w3.org/2000/svg">
<g clip-path="url(#clip0_64_198)">
<path d="M1.365 14.0417C1.40523 20.0237 5.61559 25.1657 11.4812 26.3567C18.2336 27.728 24.839 23.4462 26.3054 16.7413C26.7688 14.6236 26.6971 12.5217 26.0754 10.4416C25.9206 9.92354 26.0466 9.54463 26.4173 9.40112C26.8362 9.23835 27.227 9.42999 27.3731 9.89904C27.8531 11.4418 28.0674 13.0248 27.9817 14.6367C27.8216 17.6426 26.8475 20.3589 24.9561 22.7129C22.6721 25.556 19.721 27.2922 16.1113 27.8373C9.94225 28.7702 4.06348 25.6374 1.36938 20.0211C-2.27873 12.4158 1.65619 3.27729 9.69216 0.693174C12.4571 -0.195909 15.2334 -0.234413 18.0158 0.608291C18.5597 0.772806 18.7556 1.08696 18.6271 1.53413C18.5142 1.92879 18.1347 2.07755 17.625 1.94192C12.6066 0.60129 8.2651 1.78965 4.68607 5.54113C2.82704 7.48994 1.78997 9.87541 1.49092 12.5645C1.43671 13.0555 1.4061 13.549 1.365 14.0417Z" fill="white"/>
<path d="M14.0238 23.7242C9.42428 23.7207 5.45351 20.4916 4.47853 15.9631C3.34527 10.7012 6.83335 5.4201 12.1525 4.39451C12.9307 4.24487 13.7413 4.23436 14.5379 4.22036C15.1002 4.21074 15.4867 4.67016 15.3616 5.10857C15.248 5.50761 14.9638 5.645 14.5607 5.61787C13.1082 5.51986 11.7231 5.79026 10.4133 6.42207C7.16913 7.98672 5.31623 11.4109 5.76131 15.0049C6.21514 18.668 9.02379 21.617 12.6395 22.2278C17.2688 23.0092 21.6575 19.8143 22.3133 15.1676C22.392 14.6093 22.3807 14.0362 22.3876 13.4691C22.3946 12.9353 22.6115 12.6317 23.0391 12.6133C23.4676 12.5949 23.7675 12.9126 23.7955 13.4481C23.889 15.2621 23.5113 16.9773 22.6552 18.577C20.9475 21.7675 17.65 23.7268 14.0246 23.7242H14.0238Z" fill="white"/>
<path d="M23.8071 4.19874C24.5084 4.19874 25.1345 4.20574 25.7597 4.19611C26.1104 4.19086 26.3884 4.28887 26.5406 4.63015C26.698 4.98368 26.5371 5.24796 26.2975 5.48773C24.9684 6.81873 23.6471 8.15848 22.2987 9.46935C22.1125 9.6505 21.7907 9.75551 21.5231 9.77563C20.9145 9.82026 20.2989 9.80451 19.6877 9.78351C19.3589 9.77213 19.1202 9.86489 18.8832 10.1064C17.5454 11.4698 16.1891 12.8148 14.839 14.1659C14.7358 14.2692 14.637 14.3777 14.5251 14.4704C14.2059 14.7338 13.7985 14.7233 13.5387 14.4538C13.2904 14.1957 13.2834 13.8063 13.5309 13.5C13.6218 13.3871 13.7311 13.2882 13.8343 13.1858C15.2045 11.8137 16.5818 10.4477 17.938 9.06244C18.0893 8.90755 18.1916 8.64503 18.2047 8.42538C18.2397 7.80057 18.1785 7.16789 18.2335 6.54571C18.2606 6.23943 18.3848 5.87627 18.5921 5.661C19.867 4.33787 21.1786 3.05063 22.4763 1.75026C22.7237 1.50173 22.986 1.30046 23.3621 1.4571C23.7468 1.61724 23.8185 1.93927 23.8106 2.31731C23.7975 2.92637 23.8071 3.53542 23.8071 4.20049V4.19874ZM24.0922 5.73275C23.5605 5.59887 22.9388 5.61987 22.6476 5.31972C22.36 5.02394 22.4063 4.40263 22.3014 3.89946C21.4506 4.75354 20.5892 5.61637 19.7332 6.4827C19.6763 6.53958 19.6221 6.62971 19.6204 6.70497C19.6108 7.25277 19.6151 7.80145 19.6151 8.39475C20.2036 8.39475 20.7388 8.39825 21.273 8.39038C21.3517 8.3895 21.4488 8.35188 21.5039 8.29762C22.3809 7.43479 23.2527 6.56671 24.0931 5.73275H24.0922Z" fill="white"/>
<path d="M14.0284 19.5284C11.1891 19.5223 8.75562 17.3486 8.50116 14.5929C8.22572 11.6159 10.1057 9.05891 12.9966 8.49798C13.3499 8.42973 13.7171 8.41048 14.0783 8.40348C14.456 8.39648 14.6755 8.62662 14.7192 8.98628C14.7656 9.36169 14.6186 9.65309 14.219 9.73448C13.7512 9.82898 13.2694 9.86399 12.8095 9.98387C11.2521 10.3908 9.72186 12.0561 9.87663 14.3278C9.99556 16.0736 11.3763 17.6688 13.1723 18.0425C15.7309 18.5746 18.0473 16.7964 18.2108 14.1764C18.2178 14.0609 18.2327 13.9436 18.2606 13.8325C18.3621 13.4326 18.6445 13.2261 19.024 13.2891C19.4053 13.3521 19.616 13.5805 19.6107 13.9786C19.581 16.1278 18.6069 17.731 16.7802 18.824C15.9224 19.3368 15.0768 19.5319 14.0293 19.5293L14.0284 19.5284Z" fill="white"/>
</g>
<defs>
<clipPath id="clip0_64_198">
<rect width="28" height="28" fill="white"/>
</clipPath>
</defs>
</svg>
