<svg width="35" height="26" viewBox="0 0 35 26" fill="none" xmlns="http://www.w3.org/2000/svg">
<g clip-path="url(#clip0_64_203)">
<path d="M17.5504 4.55333C21.135 4.59704 24.4353 5.64506 27.5546 7.28478C30.1558 8.65264 32.5134 10.3531 34.613 12.382C35.1266 12.8788 35.1321 13.1315 34.6097 13.6219C31.0503 16.9643 27.0091 19.5156 22.1886 20.8141C18.1002 21.9154 14.1315 21.5039 10.2483 19.9879C6.52211 18.5336 3.27663 16.3608 0.413108 13.6379C-0.138964 13.1123 -0.141159 12.8863 0.417498 12.3618C3.99005 9.0034 8.04881 6.41908 12.9011 5.18342C14.407 4.79961 15.9798 4.66314 17.5207 4.4126C17.5306 4.45951 17.5394 4.50748 17.5493 4.55439L17.5504 4.55333ZM17.5515 5.77619C13.4521 5.75061 10.0892 8.95863 10.054 12.9268C10.0189 16.9323 13.3335 20.2 17.4549 20.2235C21.5553 20.2469 24.9259 17.0336 24.9534 13.075C24.9808 9.06737 21.6695 5.80285 17.5515 5.77619ZM23.6177 6.92656C25.2739 8.65797 26.1903 10.6655 26.1794 13.0345C26.1695 15.3885 25.242 17.3811 23.5891 19.0934C27.3515 17.7778 30.5685 15.6647 33.511 13.0004C30.5696 10.3457 27.3636 8.23045 23.6177 6.92656ZM1.4953 13.0004C4.44553 15.654 7.64052 17.7671 11.3799 19.0678C9.74234 17.3481 8.83027 15.3565 8.82808 13.0089C8.82588 10.6495 9.73905 8.64518 11.3931 6.92336C7.64711 8.23045 4.44663 10.3435 1.4953 13.0004Z" fill="white"/>
<path d="M16.8645 1.70909C16.8645 1.37219 16.8524 1.03529 16.8678 0.699458C16.8853 0.299655 17.0719 -0.00526188 17.5186 6.88319e-05C17.9335 0.00539954 18.1289 0.298589 18.1377 0.674937C18.1541 1.38285 18.1574 2.09184 18.1355 2.79976C18.1234 3.1793 17.8995 3.46077 17.4901 3.4501C17.0829 3.43944 16.8853 3.15265 16.8689 2.77097C16.8535 2.41701 16.8656 2.06305 16.8656 1.70803L16.8645 1.70909Z" fill="white"/>
<path d="M18.1437 24.2631C18.1437 24.6 18.1514 24.9358 18.1415 25.2727C18.1306 25.6704 17.9615 25.9892 17.5181 25.9998C17.0725 26.0105 16.8771 25.7002 16.8684 25.3015C16.8541 24.6106 16.8541 23.9198 16.8684 23.2289C16.8761 22.8472 17.0824 22.5562 17.4885 22.5509C17.9264 22.5455 18.124 22.8494 18.1404 23.2534C18.1536 23.5893 18.1437 23.9262 18.1437 24.2631Z" fill="white"/>
<path d="M22.8445 4.79888C22.2288 4.77863 21.9643 4.35537 22.1991 3.92038C22.5624 3.24978 22.9554 2.59304 23.3626 1.94695C23.5667 1.62391 23.9102 1.58766 24.2208 1.7753C24.5106 1.95015 24.616 2.22308 24.4195 2.55039C24.0365 3.19114 23.6754 3.84469 23.2715 4.47158C23.1617 4.64109 22.9301 4.73598 22.8434 4.79995L22.8445 4.79888Z" fill="white"/>
<path d="M12.9567 21.7259C12.8634 21.9434 12.8206 22.0788 12.7504 22.1982C12.4101 22.7814 12.0545 23.3571 11.7198 23.9435C11.5025 24.3241 11.1754 24.435 10.8088 24.242C10.4543 24.0544 10.4016 23.7356 10.6189 23.3806C10.9998 22.759 11.3356 22.1076 11.7593 21.5159C11.8855 21.34 12.2543 21.2313 12.4925 21.2579C12.667 21.2771 12.8097 21.5671 12.9556 21.7249L12.9567 21.7259Z" fill="white"/>
<path d="M23.7346 24.3175C23.6446 24.2407 23.4196 24.1203 23.2989 23.9358C22.9301 23.3708 22.602 22.7801 22.2551 22.2001C22.0444 21.8473 22.0247 21.4986 22.4209 21.2843C22.8006 21.0796 23.1156 21.231 23.3264 21.5967C23.6896 22.2268 24.0782 22.8452 24.4239 23.4838C24.6478 23.8964 24.3581 24.3154 23.7335 24.3175H23.7346Z" fill="white"/>
<path d="M12.9037 4.35631C12.8104 4.45332 12.6809 4.7028 12.5031 4.74225C12.2935 4.78809 11.9258 4.72412 11.8281 4.57913C11.3573 3.884 10.9303 3.15796 10.5506 2.41273C10.4781 2.27093 10.6318 1.88499 10.7876 1.80396C10.9786 1.70481 11.4264 1.71227 11.512 1.83701C12.0081 2.55559 12.4307 3.32108 12.8741 4.07378C12.8993 4.11536 12.8862 4.17826 12.9026 4.35631H12.9037Z" fill="white"/>
<path d="M21.5495 11.6349C20.6297 12.5401 19.8131 13.3493 18.9911 14.1532C18.4631 14.6692 18.1877 14.6713 17.6652 14.1574C17.3052 13.8045 16.9595 13.4378 16.4623 12.9282C16.2241 13.231 16.0518 13.5049 15.8257 13.7299C15.0223 14.5316 14.1991 15.3153 13.3858 16.1085C13.0796 16.4081 12.7416 16.569 12.3948 16.2076C12.0863 15.8878 12.1972 15.5573 12.4935 15.2694C13.6569 14.1382 14.8171 13.0039 15.9871 11.878C16.3789 11.5006 16.6752 11.5059 17.0736 11.8887C17.4753 12.2757 17.8562 12.683 18.2294 13.0646C19.024 12.281 19.7703 11.5454 20.5277 10.7991C20.4322 10.7927 20.2972 10.7799 20.1622 10.7767C19.7857 10.7671 19.5925 10.5848 19.5794 10.217C19.5662 9.84702 19.7802 9.621 20.1227 9.60394C20.8339 9.56875 21.5506 9.56769 22.2618 9.60394C22.6163 9.621 22.7864 9.8822 22.7842 10.2362C22.7787 10.8407 22.7722 11.4452 22.7831 12.0486C22.7897 12.4484 22.6251 12.7309 22.2058 12.7427C21.7591 12.7555 21.5594 12.474 21.5681 12.0486C21.5703 11.9601 21.5605 11.8716 21.5484 11.6339L21.5495 11.6349Z" fill="white"/>
</g>
<defs>
<clipPath id="clip0_64_203">
<rect width="35" height="26" fill="white"/>
</clipPath>
</defs>
</svg>
